<svg xmlns="http://www.w3.org/2000/svg" viewBox="0 0 60 60" fill="none" stroke="#B08840" stroke-width="0.9" stroke-linecap="round" stroke-linejoin="round">
  <g>
    <path d="M2 58 V 18 Q 2 2 18 2 H 58" stroke-width="1"/>
    <path d="M8 58 V 22 Q 8 8 22 8 H 58" stroke-opacity="0.6"/>
    <!-- Lotus -->
    <g transform="translate(16,16)">
      <path d="M0 14 C -8 10 -10 2 -6 -4 C -2 -3 3 2 4 8 C 5 2 10 -3 14 -4 C 18 2 16 10 8 14 Z" fill="#FFF6E1" fill-opacity="0.85"/>
      <path d="M0 13 C -6 9 -8 3 -4 -2 C 0 -1 3 3 4 7"/>
      <path d="M8 13 C 14 9 16 3 12 -2 C 8 -1 5 3 4 7"/>
      <circle cx="4" cy="2" r="0.9" fill="#B08840" stroke="none"/>
    </g>
    <!-- Small branch -->
    <path d="M28 12 C 36 16 42 22 46 30" stroke="#7C8B5F"/>
    <circle cx="46" cy="30" r="2.4" fill="#B8746A" fill-opacity="0.5" stroke="#B8746A"/>
    <circle cx="46" cy="30" r="0.7" fill="#B08840" stroke="none"/>
    <!-- Dots -->
    <circle cx="52" cy="6" r="0.9" fill="#B08840" stroke="none"/>
    <circle cx="6" cy="52" r="0.9" fill="#B08840" stroke="none"/>
  </g>
</svg>
