<svg xmlns="http://www.w3.org/2000/svg" viewBox="0 0 320 80" fill="none" stroke="#B08840" stroke-width="1" stroke-linecap="round" stroke-linejoin="round">
  <g>
    <path d="M0 40 L 90 40" />
    <path d="M230 40 L 320 40" />
    <!-- Left flourish -->
    <path d="M90 40 C 108 26 130 24 150 34" stroke="#7C8B5F"/>
    <path d="M120 30 C 116 22 118 14 128 12" stroke="#7C8B5F"/>
    <circle cx="128" cy="12" r="4" fill="#B8746A" fill-opacity="0.5" stroke="#B8746A"/>
    <path d="M108 32 C 100 28 92 30 88 36" fill="#7C8B5F" fill-opacity="0.25" stroke="#7C8B5F"/>
    <!-- Central lotus -->
    <path d="M160 60 C 146 52 142 40 148 30 C 156 34 162 42 160 52 C 158 42 164 34 172 30 C 178 40 174 52 160 60 Z" fill="#FFF6E1" fill-opacity="0.75"/>
    <path d="M160 56 C 154 48 152 40 156 32 C 160 36 162 42 160 50"/>
    <path d="M160 56 C 166 48 168 40 164 32 C 160 36 158 42 160 50"/>
    <circle cx="160" cy="36" r="1.4" fill="#B08840" stroke="none"/>
    <!-- Right flourish -->
    <path d="M230 40 C 212 26 190 24 170 34" stroke="#7C8B5F"/>
    <path d="M200 30 C 204 22 202 14 192 12" stroke="#7C8B5F"/>
    <circle cx="192" cy="12" r="4" fill="#B8746A" fill-opacity="0.5" stroke="#B8746A"/>
    <path d="M212 32 C 220 28 228 30 232 36" fill="#7C8B5F" fill-opacity="0.25" stroke="#7C8B5F"/>
    <!-- End dots -->
    <circle cx="0" cy="40" r="1.4" fill="#B08840" stroke="none"/>
    <circle cx="320" cy="40" r="1.4" fill="#B08840" stroke="none"/>
  </g>
</svg>
